<svg width="42" height="74" viewBox="0 0 42 74" fill="none" xmlns="http://www.w3.org/2000/svg">
<path d="M6.9 65.7019C5.24 65.3143 3.98 64.6166 2.68 63.3762C0.72 61.4768 0 59.5387 0 56.1858V54.3446H7.8C15.24 54.3446 15.66 54.3252 16.4 53.957C17.3 53.5112 18 52.4065 18 51.4374C18 50.4684 17.3 49.3636 16.4 48.9179C15.66 48.5496 15.24 48.5303 7.8 48.5303H0V45.6231V42.7159H7.8C15.24 42.7159 15.66 42.6965 16.4 42.3283C17.3 41.8825 18 40.7778 18 39.8088C18 38.8397 17.3 37.735 16.4 37.2892C15.66 36.921 15.24 36.9016 7.8 36.9016H0V33.9944V31.0873H7.8C15.24 31.0873 15.66 31.0679 16.4 30.6996C17.3 30.2539 18 29.1491 18 28.1801C18 27.211 17.3 26.1063 16.4 25.6605C15.66 25.2923 15.24 25.2729 7.8 25.2729H0V22.3658V19.4586H7.8C15.24 19.4586 15.66 19.4392 16.4 19.071C17.3 18.6252 18 17.5205 18 16.5514C18 15.5824 17.3 14.4776 16.4 14.0319C15.66 13.6636 15.24 13.6443 7.8 13.6443H0V11.803C0 8.45012 0.72 6.53139 2.68 4.61266C4 3.35288 5.44 2.57764 7.16 2.22878C8.64 1.93806 33.36 1.93806 34.84 2.22878C36.56 2.57764 38 3.35288 39.32 4.61266C41.28 6.53139 42 8.45012 42 11.803V13.6443H34.18C26.44 13.6443 26.34 13.6443 25.56 14.0706C24.66 14.5552 24 15.6211 24 16.5514C24 17.4817 24.66 18.5477 25.56 19.0322C26.34 19.4586 26.44 19.4586 34.18 19.4586H42V22.3658V25.2729H34.18C26.44 25.2729 26.34 25.2729 25.56 25.6993C23.54 26.804 23.54 29.5561 25.56 30.6609C26.34 31.0873 26.44 31.0873 34.18 31.0873H42V33.9944V36.9016H34.18C26.44 36.9016 26.34 36.9016 25.56 37.328C23.54 38.4327 23.54 41.1848 25.56 42.2895C26.34 42.7159 26.44 42.7159 34.18 42.7159H42V45.6231V48.5303H34.18C26.44 48.5303 26.34 48.5303 25.56 48.9566C23.54 50.0614 23.54 52.8135 25.56 53.9182C26.34 54.3446 26.44 54.3446 34.18 54.3446H42V56.1858C42 59.5387 41.28 61.4575 39.32 63.3762C38 64.6553 36.44 65.4694 34.78 65.7795C33.2 66.0702 8.16 65.9926 6.9 65.7019Z" fill="url(#paint0_linear_867_822)" fill-opacity="0.5"/>
<g filter="url(#filter0_dd_867_822)">
<path d="M9.58571 65.7392C8.2419 65.3513 7.2219 64.653 6.16952 63.4117C4.58286 61.5109 4 59.5713 4 56.2159V54.3733H10.3143C16.3371 54.3733 16.6771 54.3539 17.2762 53.9854C18.0048 53.5393 18.5714 52.4337 18.5714 51.4639C18.5714 50.4941 18.0048 49.3886 17.2762 48.9425C16.6771 48.574 16.3371 48.5546 10.3143 48.5546H4V42.7359H10.3143C16.3371 42.7359 16.6771 42.7165 17.2762 42.3479C18.0048 41.9018 18.5714 40.7963 18.5714 39.8265C18.5714 38.8567 18.0048 37.7512 17.2762 37.3051C16.6771 36.9365 16.3371 36.9171 10.3143 36.9171H4V31.0984H10.3143C16.3371 31.0984 16.6771 31.079 17.2762 30.7105C18.0048 30.2644 18.5714 29.1589 18.5714 28.1891C18.5714 27.2193 18.0048 26.1137 17.2762 25.6676C16.6771 25.2991 16.3371 25.2797 10.3143 25.2797H4V19.461H10.3143C16.3371 19.461 16.6771 19.4416 17.2762 19.0731C18.0048 18.627 18.5714 17.5214 18.5714 16.5516C18.5714 15.5819 18.0048 14.4763 17.2762 14.0302C16.6771 13.6617 16.3371 13.6423 10.3143 13.6423H4V11.7997C4 8.44423 4.58286 6.52405 6.16952 4.60387C7.2381 3.34315 8.40381 2.56732 9.79619 2.2182C10.9943 1.92727 31.0057 1.92727 32.2038 2.2182C33.5962 2.56732 34.7619 3.34315 35.8305 4.60387C37.4171 6.52405 38 8.44423 38 11.7997V13.6423H31.6695C25.4038 13.6423 25.3229 13.6423 24.6914 14.069C23.9629 14.5539 23.4286 15.6206 23.4286 16.5516C23.4286 17.4826 23.9629 18.5494 24.6914 19.0343C25.3229 19.461 25.4038 19.461 31.6695 19.461H38V25.2797H31.6695C25.4038 25.2797 25.3229 25.2797 24.6914 25.7064C23.0562 26.812 23.0562 29.5662 24.6914 30.6717C25.3229 31.0984 25.4038 31.0984 31.6695 31.0984H38V36.9171H31.6695C25.4038 36.9171 25.3229 36.9171 24.6914 37.3438C23.0562 38.4494 23.0562 41.2036 24.6914 42.3091C25.3229 42.7359 25.4038 42.7359 31.6695 42.7359H38V48.5546H31.6695C25.4038 48.5546 25.3229 48.5546 24.6914 48.9813C23.0562 50.0868 23.0562 52.841 24.6914 53.9466C25.3229 54.3733 25.4038 54.3733 31.6695 54.3733H38V56.2159C38 59.5713 37.4171 61.4915 35.8305 63.4117C34.7619 64.6918 33.499 65.5064 32.1552 65.8168C30.8762 66.1077 10.6057 66.0301 9.58571 65.7392Z" fill="url(#paint1_linear_867_822)" fill-opacity="0.5" shape-rendering="crispEdges"/>
</g>
<defs>
<filter id="filter0_dd_867_822" x="0" y="0" width="42" height="74" filterUnits="userSpaceOnUse" color-interpolation-filters="sRGB">
<feFlood flood-opacity="0" result="BackgroundImageFix"/>
<feColorMatrix in="SourceAlpha" type="matrix" values="0 0 0 0 0 0 0 0 0 0 0 0 0 0 0 0 0 0 127 0" result="hardAlpha"/>
<feOffset/>
<feGaussianBlur stdDeviation="1"/>
<feComposite in2="hardAlpha" operator="out"/>
<feColorMatrix type="matrix" values="0 0 0 0 0 0 0 0 0 0 0 0 0 0 0 0 0 0 1 0"/>
<feBlend mode="normal" in2="BackgroundImageFix" result="effect1_dropShadow_867_822"/>
<feColorMatrix in="SourceAlpha" type="matrix" values="0 0 0 0 0 0 0 0 0 0 0 0 0 0 0 0 0 0 127 0" result="hardAlpha"/>
<feOffset dy="4"/>
<feGaussianBlur stdDeviation="2"/>
<feComposite in2="hardAlpha" operator="out"/>
<feColorMatrix type="matrix" values="0 0 0 0 0 0 0 0 0 0 0 0 0 0 0 0 0 0 0.25 0"/>
<feBlend mode="normal" in2="effect1_dropShadow_867_822" result="effect2_dropShadow_867_822"/>
<feBlend mode="normal" in="SourceGraphic" in2="effect2_dropShadow_867_822" result="shape"/>
</filter>
<linearGradient id="paint0_linear_867_822" x1="5.85532" y1="-0.735155" x2="43.4813" y2="14.0173" gradientUnits="userSpaceOnUse">
<stop stop-color="#08466B"/>
<stop offset="0.19" stop-color="#37779D"/>
<stop offset="0.43179" stop-color="#71BDEB"/>
<stop offset="0.76" stop-color="#37779D"/>
<stop offset="1" stop-color="#08466B"/>
</linearGradient>
<linearGradient id="paint1_linear_867_822" x1="8.74002" y1="-0.747966" x2="40.6698" y2="9.37887" gradientUnits="userSpaceOnUse">
<stop stop-color="#08466B"/>
<stop offset="0.19" stop-color="#37779D"/>
<stop offset="0.43179" stop-color="#71BDEB"/>
<stop offset="0.76" stop-color="#37779D"/>
<stop offset="1" stop-color="#08466B"/>
</linearGradient>
</defs>
</svg>
